<svg width="902" height="913" viewBox="0 0 902 913" fill="none" xmlns="http://www.w3.org/2000/svg">
<path d="M35.6985 0.261817L896.13 247.977C900.293 249.175 902.337 253.376 901.41 257.123C900.756 259.764 899.294 262.292 899.294 265.013V282.887C899.294 285.594 898.196 288.186 896.252 290.069L261.867 904.614C260.513 905.926 258.815 906.828 256.969 907.217L233.434 912.172C232.024 912.469 230.557 912.477 229.17 912.086C221.429 909.906 218.719 906.3 216.794 897.622L0.318918 61.0836C-0.338024 58.5449 0.0285006 55.8498 1.33954 53.5788L25.5501 11.6404C26.8524 9.38459 26.8644 6.55436 27.8263 4.13372C28.9948 1.19314 32.2678 -0.725875 35.6985 0.261817Z" fill="white"/>
<path d="M206.182 626.648L170.172 473.605C168.429 466.197 175.271 459.634 182.601 461.685L330.324 503.014C337.69 505.075 340.109 514.307 334.701 519.716L222.987 631.429C217.447 636.969 207.977 634.275 206.182 626.648Z" fill="#556199"/>
<path d="M103.182 194.648L67.1722 41.6053C65.429 34.197 72.2715 27.6342 79.6007 29.6847L227.324 71.0145C234.69 73.0754 237.109 82.307 231.701 87.7157L119.987 199.429C114.447 204.969 104.977 202.275 103.182 194.648Z" fill="#556199"/>
<path d="M387.577 489.548L505.308 385.345C511.007 380.301 520.027 383.219 521.693 390.645L555.262 540.323C556.936 547.786 549.952 554.289 542.626 552.088L391.326 506.613C383.823 504.358 381.71 494.741 387.577 489.548Z" fill="#556199"/>
<path d="M174.577 418.548L292.308 314.345C298.007 309.301 307.027 312.219 308.693 319.645L342.262 469.323C343.936 476.786 336.952 483.289 329.626 481.088L178.326 435.613C170.823 433.358 168.71 423.741 174.577 418.548Z" fill="#4A9CA3"/>
<path d="M385.827 521.441L536.728 565.572C544.033 567.708 546.369 576.897 540.971 582.262L432.178 690.402C426.753 695.795 417.528 693.348 415.49 685.975L373.381 533.704C371.293 526.153 378.306 519.242 385.827 521.441Z" fill="#4A9CA3"/>
<path d="M552.577 330.548L670.308 226.345C676.007 221.301 685.027 224.219 686.693 231.645L720.262 381.323C721.936 388.786 714.952 395.289 707.626 393.088L556.326 347.613C548.823 345.358 546.71 335.741 552.577 330.548Z" fill="#454C78"/>
<path d="M706.408 208.327L856.259 255.902C863.513 258.205 865.638 267.444 860.119 272.685L748.879 378.306C743.332 383.573 734.166 380.915 732.296 373.498L693.685 220.303C691.77 212.705 698.94 205.957 706.408 208.327Z" fill="#DE6762"/>
<path d="M289.285 267.776L139.433 220.201C132.179 217.899 130.054 208.659 135.573 203.418L246.814 97.7973C252.361 92.5305 261.527 95.188 263.396 102.605L302.007 255.801C303.922 263.398 296.753 270.147 289.285 267.776Z" fill="#DE6762"/>
<path d="M381.285 705.776L231.433 658.201C224.179 655.899 222.054 646.659 227.573 641.418L338.814 535.797C344.361 530.53 353.527 533.188 355.396 540.605L394.007 693.801C395.922 701.398 388.752 708.147 381.285 705.776Z" fill="#F3AF2A"/>
<path d="M495.408 147.327L645.26 194.902C652.513 197.205 654.638 206.444 649.119 211.685L537.879 317.306C532.332 322.573 523.166 319.915 521.296 312.498L482.685 159.303C480.77 151.705 487.94 144.957 495.408 147.327Z" fill="#F3AF2A"/>
<path d="M459.294 140.622L339.794 253.622L381.794 167.122L298.294 95.1224L459.294 140.622Z" fill="#B5B0B6"/>
<path d="M898.294 288.622V263.622L257.294 883.122V907.122L898.294 288.622Z" fill="url(#paint0_linear_1_81)"/>
<path d="M0.793884 57.1224L27.7939 11.1224L243.794 873.622C245.076 881.257 248.884 882.888 258.794 883.122L261.794 904.622L231.794 912.122C226.082 911.437 220.667 910.076 218.794 904.622L0.793884 57.1224Z" fill="#454C78"/>
<path d="M84.1488 27.3793L123.434 203.932L77.6508 29.5206L84.1488 27.3793Z" fill="#454C78"/>
<path d="M73.1488 35.3793L112.434 211.932L66.6508 37.5206L73.1488 35.3793Z" fill="#454C78"/>
<path d="M338.152 320.484L372.801 498.005L331.6 322.455L338.152 320.484Z" fill="#B4AFB5"/>
<path d="M467.195 169.492L330.728 288.198L462.214 164.801L467.195 169.492Z" fill="#B4AFB5"/>
<path d="M254.199 832.741L263.99 831.067C265.727 830.77 266.835 829.048 266.385 827.344L236.849 715.481C236.789 715.251 236.701 715.03 236.588 714.821L219.153 682.527C217.473 679.415 212.732 681.266 213.606 684.694L250.786 830.525C251.172 832.04 252.657 833.005 254.199 832.741Z" fill="#B4AFB5"/>
<path d="M145.024 401.745L156.839 399.959C158 399.783 158.761 398.65 158.483 397.508L130.822 283.919C130.784 283.765 130.729 283.616 130.656 283.476L110.078 243.538C108.998 241.442 105.815 242.615 106.353 244.911L142.778 400.224C143.016 401.239 143.993 401.901 145.024 401.745Z" fill="#B4AFB5"/>
<path d="M540.116 374.484L580.801 541.83L533.789 376.075L540.116 374.484Z" fill="#B4AFB5"/>
<path d="M135.452 233.021L297.705 290.761L133.314 239.184L135.452 233.021Z" fill="#B4AFB5"/>
<defs>
<linearGradient id="paint0_linear_1_81" x1="450.815" y1="0" x2="450.815" y2="912.388" gradientUnits="userSpaceOnUse">
<stop stop-color="#D9D9D9"/>
<stop offset="0.388893" stop-color="#454C78"/>
</linearGradient>
</defs>
</svg>
